<svg xmlns="http://www.w3.org/2000/svg" viewBox="0 0 640 250" role="img" aria-label="Индивидуальный расчет бассейна">
  <rect width="640" height="250" fill="#f4eadc"/>
  <path d="M0 0h640v250H0z" fill="#f6eee3"/>
  <path d="M72 190h496" stroke="#dfd1bf" stroke-width="2"/>
  <g transform="translate(236 38)" fill="none" stroke="#b9a792" stroke-linecap="round" stroke-linejoin="round">
    <path d="M44 30h104v84H44z" stroke-width="5"/>
    <path d="M64 52h64M64 72h42M64 92h54" stroke-width="5"/>
    <path d="m140 116 44 44" stroke-width="9"/>
    <path d="m154 102 44 44" stroke-width="9"/>
    <path d="m143 115 42-42 24 24-42 42z" stroke-width="5"/>
    <path d="M36 30c-23 10-35 28-35 54 0 24 13 43 38 57" stroke-width="5"/>
    <path d="M24 56c-6 10-9 20-9 30 0 11 3 22 10 31" stroke-width="5"/>
  </g>
  <path d="M110 214h420" stroke="#d86b53" stroke-width="8" stroke-linecap="round"/>
</svg>
