<svg xmlns="http://www.w3.org/2000/svg" viewBox="0 0 640 250">
  <rect width="640" height="250" fill="#d8d0bd"/><path d="M0 0h640v70H0z" fill="#5d8847"/><path d="M0 136 340 38l360 136-404 112z" fill="#b6885e"/><g opacity=".25" stroke="#765031" stroke-width="4"><path d="M0 150 395 50M42 174 438 65M84 198 480 80M126 222 522 96"/><path d="m175 73 220 98M230 58l228 102M285 44l234 105"/></g><path d="M154 78 455 54l34 126-302 26-38-42 16-37z" fill="#f3eadc"/><path d="M188 94 427 75l24 85-236 20-30-28 12-27z" fill="#0870d9"/><path d="M207 106 411 91l16 57-197 16-21-19 9-19z" fill="#18b9ee"/><path d="M236 116c52-16 105-16 158 0M239 139c47 16 96 16 146 0" fill="none" stroke="#cbf8ff" stroke-width="10" stroke-linecap="round"/>
</svg>
