<svg xmlns="http://www.w3.org/2000/svg" viewBox="0 0 640 250">
  <rect width="640" height="250" fill="#d8d0bd"/><path d="M0 0h640v70H0z" fill="#5d8847"/><path d="M0 136 340 38l360 136-404 112z" fill="#b6885e"/><g opacity=".25" stroke="#765031" stroke-width="4"><path d="M0 150 395 50M42 174 438 65M84 198 480 80M126 222 522 96"/><path d="m175 73 220 98M230 58l228 102M285 44l234 105"/></g><path d="M160 88c56-39 123-33 172 0 40 26 96 34 111 75 16 45-31 78-88 68-66-11-112-11-165-32-58-23-80-77-30-111z" fill="#f3eadc"/><path d="M192 107c42-28 93-25 130 0 31 21 73 26 84 56 11 31-22 54-64 47-52-9-87-9-128-25-42-17-58-53-22-78z" fill="#0870d9"/><path d="M216 120c31-20 69-18 96 1 25 16 56 20 64 42 8 22-16 38-48 33-41-7-67-7-97-19-30-12-41-39-15-57z" fill="#18b9ee"/><path d="M244 132c45-13 87-6 126 21M241 158c42 17 84 22 126 12" fill="none" stroke="#cbf8ff" stroke-width="10" stroke-linecap="round"/>
</svg>
